<svg width="48" height="49" viewBox="0 0 48 49" fill="none" xmlns="http://www.w3.org/2000/svg">
<path fill-rule="evenodd" clip-rule="evenodd" d="M48 24.1445C48 37.3994 37.2548 48.1445 24 48.1445C10.7452 48.1445 0 37.3994 0 24.1445C0 10.8897 10.7452 0.144531 24 0.144531C37.2548 0.144531 48 10.8897 48 24.1445ZM36 24.1445C36 30.7719 30.6274 36.1445 24 36.1445C17.3726 36.1445 12 30.7719 12 24.1445C12 17.5171 17.3726 12.1445 24 12.1445C30.6274 12.1445 36 17.5171 36 24.1445ZM24 32.1445C28.4183 32.1445 32 28.5628 32 24.1445C32 19.7263 28.4183 16.1445 24 16.1445C19.5817 16.1445 16 19.7263 16 24.1445C16 28.5628 19.5817 32.1445 24 32.1445Z" fill="#FA8232"/>
</svg>
